<svg version="1.2" xmlns="http://www.w3.org/2000/svg" viewBox="0 0 1408 768" width="1408" height="768">
	<style>
		.s0 { fill: #83d3e3 } 
	</style>
	<g id="#2b8ba1ff">
		<path class="s0" d="m666.99 142.02c37.73-11.09 80.62-2.96 111.36 21.67 32.78 25.03 50.81 67.34 47.55 108.29-1.74 22.87-9.98 45.2-23.66 63.63 20.14 20.25 40.43 40.35 60.65 60.52 4.67 4.95 6.48 12.28 5.01 18.89-1.35 6.67-6.5 12.43-12.97 14.51-5.47 1.79-11.82 1.39-16.72-1.73-3.95-2.66-7.1-6.29-10.47-9.59-17.93-18.14-36.3-35.83-54.04-54.16-13.57 9.22-28.6 16.43-44.67 20.04-38.6 9.49-81.11-2.22-110.56-28.6-11.43-10.45-21.53-22.52-28.43-36.45-18.4-35.03-17.89-78.88 0.09-113.97 15.74-30.17 43.81-54.17 76.86-63.05zm21.37 22.55c-21.45 2.99-41.84 13.28-56.9 28.86-14.29 14.49-23.76 33.63-26.97 53.7-5.47 33.34 7.81 69.04 33.95 90.49 15.29 12.92 34.65 20.9 54.6 22.57 19.32 1.76 39.12-2.47 55.97-12.09 32.26-17.49 52.58-54.44 50.16-91.04-1.17-18.6-7.49-36.9-18.34-52.07-9.45-13.46-22.52-24.17-37.18-31.51-17-8.35-36.54-11.43-55.29-8.91z"/>
		<path class="s0" d="m669.32 204.28c3.11-3.53 9.42-0.87 9.62 3.64 0.6 3.88-3.04 6.24-5.13 8.93-7.03 7.29-13.49 15.1-20.68 22.23-1.85 2.18-5.39 2.17-7.21-0.02-4.84-4.91-9.84-9.66-14.4-14.83 0.2-1.64-0.01-3.44 0.92-4.9 1.65-3.04 6.18-4 8.82-1.68 2.95 2.37 5.46 5.23 8.07 7.96 6.89-6.89 13.08-14.45 19.99-21.33z"/>
		<path class="s0" d="m690.31 217.47c22.56-0.65 45.18-0.01 67.76-0.28 3.31 0.1 7.17-0.51 9.85 1.94 3.71 3.05 3.45 9.54-0.4 12.35-1.81 1.5-4.23 1.78-6.48 1.79-22.68-0.07-45.36-0.02-68.04-0.01-4.17 0.35-8.44-2.92-8.75-7.16-0.51-3.85 2.2-7.89 6.06-8.63z"/>
		<path class="s0" d="m636.46 255.7c2.68-1.23 5.71-0.84 8.58-0.91 39-0.17 77.99-0.03 116.99-0.03 4.47-0.26 8.79 3.64 8.47 8.22 0.28 4.43-4.22 8.04-8.46 7.66-39.01 0.03-78.02-0.08-117.02 0.04-3.59-0.15-7.93 0.91-10.64-2.13-4.14-3.41-3.03-10.99 2.08-12.85z"/>
		<path class="s0" d="m636.27 293.32c1.78-0.9 3.83-0.68 5.77-0.76 28.65-0.04 57.3-0.07 85.95-0.02 4.1-0.25 7.9 3.27 7.92 7.39 0.53 4.04-2.72 8.19-6.84 8.36-29.34 0.12-58.69-0.01-88.03 0.08-2.1 0-4.38-0.03-6.06-1.45-4.61-3.23-3.95-11.35 1.29-13.6z"/>
		<path class="s0" d="m606.2 411.21c6.2-10.98 12.6-21.91 20.3-31.92 14.96 10.27 32.37 16.6 50.06 20.27 20.46 3.98 41.85 3.05 61.83-2.94 11.76-3.2 22.81-8.47 33.5-14.23 9.92 9.84 21.56 19.05 26.35 32.67 1.27 5.86-2.12 12.42-7.85 14.41-3.61 1.52-7.47 0.14-11.01-0.83-26.42-7.53-53.95-10.96-81.4-10.84-24.22 0.82-48.48 3.73-71.9 10.14-3 0.82-5.95 1.9-9.05 2.26-6.32 0.58-12.59-4.73-12.86-11.11-0.23-2.78 0.74-5.47 2.03-7.88z"/>
		<path class="s0" d="m520.55 456q9.58 0.07 19.15 0.03c0.02 33.46-0.09 66.93 0.09 100.41-6.36-0.01-12.71 0-19.07-0.04-0.13-6.81-0.11-13.62-0.11-20.43 0-9.52-0.01-27.94-0.01-33.48 0-15.5 0.06-30.99-0.05-46.49z"/>
		<path class="s0" d="m466.02 473.98c8.05-0.83 16.49-0.4 23.94 3.03 6.66 3.06 12.59 8.11 16.11 14.6-4.7 3.18-9.4 6.35-14.22 9.33-3.3-4.01-7.02-8.06-12.12-9.67-8.14-2.63-18.1-1.02-24 5.49-9.49 9.77-9.8 27.07-0.51 37.06 6.09 6.59 16.22 9.08 24.64 5.95 5.07-1.9 9.15-5.91 11.62-10.68 5.16 2.73 10.22 5.66 15.3 8.54-4.7 9.79-14.28 16.85-24.88 18.91-17.6 3.91-38.12-3.23-46.94-19.54-8.04-13.91-6.99-32.13 1.43-45.62 6.81-9.61 17.87-16.24 29.63-17.4z"/>
		<path class="s0" d="m658.56 494.6c5.68-10.62 16.44-18.48 28.4-20.33 9.57-1.42 19.91-0.77 28.39 4.3 7.3 3.9 12.91 10.51 15.93 18.18 3.53 7.73 3.81 16.39 3.31 24.73-20.76 0.14-41.52 0.09-62.27 0.17 1.76 8.63 8.4 15.81 16.83 18.3 10.52 3.62 22.4-0.09 30.11-7.8 4.11 2.97 7.03 7.52 10.85 10.94-5.16 7.1-13.36 11.6-21.88 13.26-14.41 3.07-30.57 0.1-41.75-9.86-13.91-12.91-16.37-35.32-7.92-51.89zm27.43-3.64c-7.32 2.79-12.09 10.04-13.66 17.49 14.82-0.05 29.64 0.18 44.47 0.04-1.16-6.39-4.42-12.73-10.06-16.23-6.24-3.59-14.09-3.79-20.75-1.3z"/>
		<path class="s0" d="m765.67 485.62c6.79-7.78 17.03-12.08 27.34-11.52 10.79-0.12 21.57 5.32 27.08 14.73 5.49-7.45 13.81-12.88 23.04-14.19 7.38-0.96 15.18-0.76 22.13 2.19 7.79 3.52 13.79 10.73 15.87 19.03 1.7 5.88 1.56 12.06 1.54 18.12-0.06 14.03 0.18 28.07-0.07 42.1-4.61 0.83-9.7 0-14.49 0.34 0.05-14.79-0.05-29.58 0.02-44.36 0.08-6.37-0.61-13.28-4.84-18.36-4.83-5.92-13.2-7.34-20.4-6.36-6.8 0.96-12.81 5.54-15.77 11.69-2.23 4.28-2.77 9.18-2.69 13.94 0.06 14.49-0.05 28.97 0.04 43.46-4.97 0.03-9.93-0.01-14.9 0.04q0.02-23.28-0.01-46.54c0.11-7.33-2.1-15.65-8.55-19.89-9.75-5.72-24.23-3.38-30.44 6.49-3.6 5.05-4.63 11.39-4.48 17.47 0.14 14.15-0.3 28.3 0.06 42.44-4.92 0.04-9.84-0.02-14.75 0.06 0.03-27.13-0.18-54.26 0.09-81.38 4.72-0.2 9.45-0.25 14.18-0.22q-0.05 5.36 0 10.72z"/>
		<path class="s0" d="m932.48 474.65c9.39-1.26 19.5-0.22 27.57 5.11 7.66 4.37 13.15 11.8 16.01 20.06 2.54 6.58 2.68 13.74 2.47 20.71-21.68 0.17-43.36-0.05-65.03 0.09 1.32 6.34 3.96 12.71 9.07 16.92 11.22 9.55 29.52 9.37 40.43-0.62 0.95-0.55 1.67-2.01 2.92-1.78 2.94 2.67 5.27 5.92 7.97 8.83-6.95 8.09-17.38 12.72-27.95 13.27-11.02 0.79-22.57-1.79-31.4-8.64-8.75-6.41-14.31-16.74-15.27-27.5-0.52-6.95-0.23-14.11 2.22-20.71 4.54-13.39 17.04-23.64 30.99-25.74zm-10.03 17.89c-5.02 4.33-7.62 10.67-9.15 16.98 3.87 0.51 7.78 0.2 11.68 0.25 13.26-0.12 26.53 0.25 39.79-0.09-0.97-8.56-5.98-16.84-13.9-20.56-9.01-4.55-20.78-3.22-28.42 3.42z"/>
		<path class="s0" d="m561.26 475.17c6.11-0.74 12.38-0.02 18.56-0.36 0.13 15.08-0.08 30.16 0.12 45.24 0.12 6.43 2.01 13.56 7.61 17.38 8.46 5.44 21.12 3.43 27.08-4.82 3.67-4.68 4.32-10.88 4.53-16.62 0.02-13.71-0.02-27.42 0.09-41.14 6.17 0.09 12.34 0 18.51 0.1 0.14 27.15 0.01 54.31 0.04 81.47-5.82 0-11.64 0.03-17.46 0.02 0.01-3.44-0.01-6.88 0.04-10.32-10.57 12.41-30.26 14.55-44.15 6.72-9.76-5.5-14.97-16.89-15.06-27.81-0.09-12.68 0.09-25.37-0.31-38.04 0.47-3.92-0.29-8.08 0.4-11.82z"/>
		<path class="s0" d="m598.23 574.35c3.42-1.79 7.63 2.22 5.64 5.64-1.25 2.91-5.67 3.12-7.26 0.42-1.55-1.97-0.61-5.07 1.62-6.06z"/>
		<path class="s0" d="m808.37 574.34c2.57-1.42 6.17 0.76 6.12 3.69 0.16 2.92-3.61 5.4-6.16 3.74-2.99-1.31-3-6.21 0.04-7.43z"/>
		<path class="s0" d="m573.42 580.4q3.16 0.02 6.33 0.08 0 3.69-0.02 7.39 4.36 0.18 8.74 0.23 0.02 2.55 0.05 5.11-4.41 0.01-8.79 0.04c0.06 6.26-0.17 12.54 0.16 18.8 0.76 4.33 6.07 3.74 9.01 2.1q0.99 2.11 2.01 4.23c-3.19 2.28-7.41 3-11.18 1.95-3.56-1.04-6.12-4.53-6.23-8.21-0.32-6.25-0.08-12.52-0.04-18.78q-2.81-0.1-5.6-0.17 0.05-2.54 0.1-5.07 2.71-0.18 5.45-0.27 0-3.72 0.01-7.43z"/>
		<path class="s0" d="m854.84 580.62q3.06-0.25 6.15-0.29c0.19 2.5 0.22 5.02 0.19 7.55q4.55 0.19 9.12 0.18 0.04 2.62 0.13 5.26-4.65-0.1-9.28-0.12c0.15 5.94-0.14 11.88 0.03 17.82-0.23 2.59 2.34 4.64 4.81 4.47 1.62-0.2 3.18-0.79 4.75-1.27q0.89 2.31 1.67 4.68c-4.33 2.14-10.03 2.93-14.07-0.23-2.39-1.76-3.4-4.77-3.45-7.63-0.18-5.92-0.06-11.84-0.11-17.76q-2.67-0.03-5.3-0.03 0.04-2.65 0.12-5.29 2.6-0.04 5.25-0.07 0.05-3.65-0.01-7.27z"/>
		<path class="s0" d="m955.39 580.35q3.07 0.03 6.16 0.1 0.01 3.72 0.03 7.45 4.53 0.12 9.08 0.2 0 2.48 0.06 5-4.51 0.23-9.01 0.06c-0.15 6.3-0.35 12.63 0.09 18.92 0.98 4.25 6.16 3.85 9.12 1.97q1.05 2.3 2.04 4.64c-3.41 1.85-7.51 2.9-11.3 1.61-3.56-1.05-6.2-4.51-6.23-8.22-0.21-6.28 0.09-12.57-0.07-18.84q-2.63-0.04-5.24-0.06 0.01-2.65 0.06-5.26 2.58-0.05 5.18-0.06-0.03-3.76 0.03-7.51z"/>
		<path class="s0" d="m442.5 591.88c5.79-5.77 16.64-5.91 21.53 1.1 4.63-5.58 13.25-7.11 19.53-3.55 3.87 2.45 5.63 7.2 5.71 11.63q0.14 9.68 0.07 19.38-3.26-0.06-6.5-0.1c-0.08-7.09 0.86-14.24-0.24-21.29-0.69-4.29-5.44-6.77-9.48-5.67-3.9 0.78-6.88 4.51-6.9 8.48q-0.38 9.24-0.34 18.49-3.12-0.03-6.22-0.06c0.05-6.46 0.13-12.93-0.12-19.38-0.02-2.92-1.45-5.98-4.25-7.16-4.9-2.19-11.3 1.15-11.93 6.58-0.5 6.67-0.4 13.38-0.51 20.07q-3.06-0.04-6.11-0.05-0.02-16.25 0.01-32.48 2.94 0.02 5.91 0.11c-0.04 0.97-0.12 2.92-0.16 3.9z"/>
		<path class="s0" d="m537.99 591.97c6.27-6.37 18.18-5.88 23.55 1.42 2.9 3.58 3.65 8.29 3.72 12.77-8.68 0.11-17.36-0.19-26.03 0.13 0.92 2.89 2.29 5.9 5.1 7.43 4.89 3.15 11.43 1.64 15.53-2.15q1.66 1.82 3.36 3.64c-7.26 9.05-24 6.75-28.57-3.93-2.85-6.32-1.74-14.44 3.34-19.31zm1.39 9.51c6.59 0.19 13.18 0.11 19.77 0-0.5-5.39-5.93-9.28-11.2-8.42-4.56 0.23-7.76 4.19-8.57 8.42z"/>
		<path class="s0" d="m782.3 588.26c5.56-1.41 11.48-0.4 16.66 1.9q-1.14 2.57-2.28 5.15c-4.48-2.05-9.98-3.67-14.62-1.2-2.3 1.09-2.4 4.69-0.05 5.81 4.6 2.27 10.23 1.53 14.64 4.38 3.48 1.95 4.56 6.69 2.87 10.18-1.27 3.32-4.74 5.03-8.02 5.73-6.22 1.21-12.9 0.16-18.34-3.13q1.16-2.56 2.28-5.13c4.43 2.24 9.44 4.17 14.48 3.02 1.88-0.36 4.12-1.76 3.96-3.93 0.17-1.72-1.45-2.66-2.84-3.09-4.59-1.52-9.78-1.32-13.92-4.04-3.12-2.01-3.49-6.26-2.45-9.51 1.16-3.27 4.4-5.3 7.63-6.14z"/>
		<path class="s0" d="m500.58 592.6c5.81-6.57 17.32-6.82 23.36-0.44 3.52 3.71 4.85 8.98 4.53 14.01-8.67 0.07-17.33-0.02-26 0.01 0.85 2.38 1.7 4.95 3.84 6.52 4.88 4.09 12.47 3.04 16.94-1.19q1.69 2.03 3.3 4.14c-7.4 7.68-22.07 6.8-27.79-2.46-3.69-6.31-2.97-15.03 1.82-20.59zm1.8 8.86q10.09 0.37 20.18-0.11c-0.88-5.01-5.5-8.97-10.67-8.48-4.89-0.06-8.52 4.08-9.51 8.59z"/>
		<path class="s0" d="m597.07 587.87q3.08 0 6.2 0c0.06 10.83-0.04 21.66 0.11 32.5q-3.26 0-6.51-0.02c0.27-10.83-0.14-21.65 0.2-32.48z"/>
		<path class="s0" d="m613.54 587.9q2.93-0.01 5.89-0.03-0.03 2.04-0.04 4.11c6.51-6.69 20.79-5.96 23.56 4.04 1.65 7.95 0.49 16.19 0.85 24.26q-3.08 0.05-6.15 0.06c0.01-6.14 0.02-12.28-0.07-18.41 0.05-2.52-0.68-5.16-2.62-6.86-3.82-3.27-10.32-2.31-13.21 1.75-1.76 2.32-1.91 5.35-1.95 8.15-0.04 5.13 0.1 10.27 0 15.41q-3.18-0.06-6.33-0.1c0.23-10.79-0.01-21.59 0.07-32.38z"/>
		<path class="s0" d="m656.89 590.84c6.28-4.7 16.59-4.74 21.68 1.79q-0.1-2.39-0.16-4.74 3-0.02 6.02-0.03c0.19 9.7 0.02 19.39 0.08 29.09 0.15 5.32-2.36 11.01-7.44 13.23-7.84 3.51-17.59 2.09-24.41-3.03q1.55-2.3 3.12-4.58c4.92 3.9 11.99 5.48 17.89 3.03 4.27-2 4.89-7.25 5.1-11.41-5.94 5.55-15.75 6.23-22.18 1.18-7.58-5.82-7.48-18.94 0.3-24.53zm7.56 2.78c-6.13 1.68-8.96 9.44-5.8 14.84 2.54 5.01 9.24 6.14 14.12 4.24 6.09-2.67 7.65-11.8 2.97-16.45-2.8-3.06-7.44-3.76-11.29-2.63z"/>
		<path class="s0" d="m709.5 591.72c5.26-3.86 12.23-4.93 18.54-3.57 4.62 1.04 8.1 5.3 8.41 10.01 0.48 7.33 0.08 14.69 0.34 22.03q-3.01 0.22-6 0.15c0.06-0.89 0.19-2.66 0.26-3.54-4.98 4.85-13.6 5.4-19.09 1.15-4.55-3.43-4.48-11.44 0.6-14.35 5.44-3.31 12.15-1.61 18.18-2.1-0.24-2.9-0.92-6.28-3.88-7.61-4.91-1.94-10.41-0.52-14.7 2.27q-1.34-2.24-2.66-4.44zm8.87 14.72c-3.54 0.72-4.57 5.72-1.74 7.85 3.65 2.62 9.2 1.84 12.34-1.27 1.85-1.84 1.56-4.56 1.67-6.93-4.09 0.1-8.24-0.43-12.27 0.35z"/>
		<path class="s0" d="m747.95 590.05c6.19-3.86 14.2-2.76 20.63-0.05-0.45 1.9-1.27 3.68-2.17 5.41-4.35-2.23-9.76-3.55-14.36-1.32-2.44 1.11-2.52 4.83-0.04 5.95 5 2.38 11.35 1.37 15.72 5.23 4.16 3.89 2.4 11.5-2.77 13.61-6.99 3.12-15.62 2.19-22.05-1.84q1.23-2.53 2.46-5.07c4.81 2.62 10.76 4.69 16.11 2.43 2.02-0.82 3.25-3.74 1.47-5.38-5-3.14-11.78-1.74-16.46-5.59-4.03-3.51-3.06-10.72 1.46-13.38z"/>
		<path class="s0" d="m807.15 587.93q3.07-0.01 6.16-0.01c-0.03 10.82 0.11 21.64 0.06 32.46q-3.25-0.04-6.46-0.09c-0.16-10.79 0.25-21.57 0.24-32.36z"/>
		<path class="s0" d="m825.02 590.05c6.27-3.95 14.52-2.85 20.96 0.17q-1.19 2.62-2.46 5.21c-3.98-2.2-8.71-3.08-13.15-1.94-1.54 0.55-3.18 1.77-3.17 3.57-0.25 1.83 1.56 2.97 3.06 3.51 4.6 1.49 9.87 1.22 13.95 4.14 3.43 2.43 3.84 7.64 1.61 11.01-1.68 2.75-4.87 4.07-7.91 4.63-6.15 0.98-12.62-0.16-18-3.3q1.35-2.52 2.79-4.99c4.64 2.77 10.55 4.55 15.78 2.44 2.13-0.83 3.49-3.83 1.53-5.54-4.84-2.96-11.17-1.81-15.92-5.03-4.62-3.27-3.85-11.11 0.93-13.88z"/>
		<path class="s0" d="m877.12 591.77c5.63-4.33 13.47-5.42 20.16-3.16 4.61 1.67 7.1 6.67 7.19 11.36 0.14 6.82 0.08 13.64-0.04 20.46q-3-0.07-5.95-0.11c0.1-0.96 0.29-2.88 0.39-3.84-4.74 5.31-13.43 5.72-19.13 1.79-4.65-3.3-4.85-11.35 0.09-14.46 5.58-3.39 12.43-1.89 18.62-2.2-0.13-2.82-0.67-6.18-3.52-7.53-4.98-2.21-10.81-0.8-15.14 2.22q-1.34-2.28-2.67-4.53zm6.83 22.29c3.67 2.89 9.84 2.32 12.87-1.3 1.81-1.77 1.45-4.42 1.55-6.7-4.12-0.02-8.3-0.48-12.36 0.32-3.27 0.81-4.82 5.42-2.06 7.68z"/>
		<path class="s0" d="m914.31 587.93q2.91-0.03 5.85-0.03-0.03 2.13-0.04 4.28c6.37-7 21.11-6.37 23.73 3.87 1.56 7.97 0.24 16.22 0.75 24.31q-3.16-0.03-6.3-0.04c-0.14-7.1 0.44-14.25-0.32-21.31-1.73-8-14.63-7.39-16.7 0.08-1.48 6.99-0.44 14.23-0.86 21.32q-3.12-0.07-6.21-0.1c0.15-10.79-0.01-21.59 0.1-32.38z"/>
	</g>
</svg>