<svg version="1.2" xmlns="http://www.w3.org/2000/svg" viewBox="0 0 1408 768" width="1408" height="768">
	<style>
		.s0 { fill: #83d3e3 } 
	</style>
	<g id="#2b8ba1ff">
		<path class="s0" d="m587.68 87.18c79.04-23.24 168.89-6.2 233.29 45.39 68.67 52.44 106.44 141.07 99.61 226.86-3.64 47.91-20.91 94.69-49.56 133.3 42.19 42.42 84.69 84.53 127.05 126.78 9.79 10.37 13.58 25.73 10.5 39.57-2.83 13.98-13.62 26.04-27.17 30.4-11.46 3.75-24.76 2.91-35.03-3.62-8.27-5.58-14.87-13.18-21.93-20.09-37.57-38-76.05-75.06-113.21-113.46-28.43 19.31-59.92 34.42-93.58 41.98-80.86 19.88-169.92-4.65-231.61-59.91-23.95-21.9-45.11-47.18-59.56-76.36-38.55-73.39-37.48-165.25 0.19-238.76 32.97-63.2 91.77-113.48 161.01-132.08zm44.77 47.24c-44.94 6.26-87.65 27.82-119.2 60.46-29.94 30.35-49.78 70.45-56.5 112.49-11.46 69.85 16.36 144.63 71.12 189.57 32.03 27.07 72.59 43.78 114.38 47.28 40.48 3.69 81.96-5.17 117.26-25.33 67.58-36.64 110.14-114.04 105.08-190.72-2.46-38.96-15.7-77.3-38.43-109.08-19.79-28.19-47.17-50.63-77.88-66.01-35.62-17.49-76.55-23.94-115.83-18.66z"/>
		<path class="s0" d="m592.56 217.61c6.52-7.4 19.74-1.83 20.16 7.62 1.25 8.13-6.37 13.07-10.75 18.71-14.73 15.27-28.26 31.63-43.32 46.57-3.88 4.56-11.3 4.54-15.11-0.04-10.14-10.29-20.61-20.24-30.16-31.07 0.41-3.44-0.03-7.21 1.92-10.27 3.46-6.37 12.95-8.38 18.48-3.52 6.18 4.97 11.44 10.96 16.91 16.68 14.43-14.43 27.4-30.27 41.87-44.68z"/>
		<path class="s0" d="m636.53 245.24c47.27-1.36 94.65-0.02 141.95-0.59 6.94 0.21 15.03-1.07 20.64 4.06 7.77 6.39 7.23 19.99-0.84 25.88-3.79 3.14-8.86 3.73-13.57 3.75-47.52-0.15-95.03-0.05-142.54-0.02-8.74 0.73-17.68-6.12-18.33-15-1.07-8.07 4.61-16.53 12.69-18.08z"/>
		<path class="s0" d="m523.72 325.33c5.62-2.58 11.97-1.76 17.98-1.91 81.7-0.36 163.38-0.06 245.08-0.06 9.36-0.55 18.41 7.62 17.74 17.22 0.59 9.28-8.84 16.84-17.72 16.04-81.72 0.07-163.44-0.16-245.14 0.09-7.52-0.32-16.62 1.9-22.29-4.47-8.68-7.14-6.35-23.02 4.35-26.91z"/>
		<path class="s0" d="m523.33 404.14c3.72-1.89 8.02-1.43 12.08-1.6 60.02-0.08 120.04-0.14 180.06-0.04 8.59-0.52 16.55 6.85 16.59 15.48 1.11 8.47-5.7 17.16-14.33 17.52-61.46 0.25-122.95-0.03-184.41 0.16-4.4 0-9.18-0.06-12.7-3.03-9.65-6.77-8.27-23.78 2.71-28.49z"/>
		<path class="s0" d="m460.33 651.1c12.99-23 26.4-45.9 42.53-66.87 31.34 21.52 67.81 34.78 104.87 42.47 42.86 8.34 87.67 6.39 129.53-6.16 24.63-6.71 47.78-17.75 70.18-29.81 20.78 20.61 45.16 39.91 55.2 68.44 2.66 12.27-4.44 26.02-16.45 30.19-7.56 3.18-15.65 0.29-23.06-1.74-55.35-15.78-113.02-22.96-170.53-22.71-50.74 1.72-101.56 7.81-150.62 21.24-6.29 1.72-12.47 3.98-18.96 4.74-13.24 1.21-26.37-9.91-26.94-23.28-0.48-5.82 1.55-11.46 4.25-16.51z"/>
	</g>
</svg>